<svg width="19" height="20" viewBox="0 0 19 20" fill="none" xmlns="http://www.w3.org/2000/svg">
<path d="M7.28987 20C6.46369 19.996 5.64656 19.8277 4.88602 19.505C4.12548 19.1822 3.43674 18.7114 2.85987 18.12C2.28734 17.5773 1.82743 16.9271 1.50646 16.2065C1.18548 15.486 1.00975 14.7092 0.989318 13.9206C0.968884 13.132 1.10415 12.3472 1.38737 11.6109C1.67059 10.8747 2.09621 10.2015 2.63987 9.62997L9.99987 2.19997C10.3929 1.80765 10.8614 1.49905 11.377 1.2928C11.8926 1.08655 12.4447 0.98694 12.9999 0.999972C13.5946 1.002 14.1829 1.12241 14.7306 1.35419C15.2783 1.58597 15.7744 1.92448 16.1899 2.34997C17.0169 3.14621 17.4965 4.23649 17.5245 5.38415C17.5526 6.53181 17.1269 7.64424 16.3399 8.47997L8.93987 15.91C8.70286 16.1486 8.42081 16.3378 8.1101 16.4665C7.79939 16.5953 7.4662 16.661 7.12987 16.66C6.76655 16.6605 6.40681 16.5881 6.07189 16.4473C5.73698 16.3065 5.43367 16.1 5.17987 15.84C4.6726 15.3488 4.37965 14.6773 4.36467 13.9714C4.34969 13.2655 4.61389 12.5822 5.09987 12.07L11.9299 5.20997C12.1243 5.08088 12.3577 5.02382 12.5897 5.04869C12.8217 5.07355 13.0377 5.17878 13.2003 5.34613C13.3629 5.51349 13.4619 5.73244 13.4801 5.96508C13.4983 6.19772 13.4345 6.42939 13.2999 6.61997L6.46987 13.48C6.35598 13.6172 6.30055 13.7936 6.31551 13.9713C6.33047 14.149 6.41464 14.3137 6.54987 14.43C6.69059 14.5717 6.88028 14.654 7.07987 14.66C7.15381 14.661 7.22722 14.6474 7.29588 14.62C7.36453 14.5925 7.42706 14.5517 7.47987 14.5L14.8699 7.06997C15.2847 6.60915 15.5015 6.0036 15.4734 5.38422C15.4454 4.76484 15.1747 4.18138 14.7199 3.75997C14.2975 3.32141 13.723 3.06143 13.1148 3.03353C12.5065 3.00563 11.9107 3.21193 11.4499 3.60997L4.05987 11C3.70052 11.3859 3.42103 11.8392 3.2375 12.3336C3.05397 12.828 2.97001 13.3538 2.99046 13.8807C3.0109 14.4077 3.13535 14.9254 3.35664 15.4041C3.57793 15.8828 3.89169 16.313 4.27987 16.67C4.66915 17.0735 5.13494 17.3954 5.65004 17.6169C6.16513 17.8384 6.7192 17.955 7.27987 17.96C7.76329 17.9639 8.24272 17.8723 8.69063 17.6904C9.13853 17.5085 9.54609 17.2399 9.88987 16.9L17.2799 9.46997C17.3725 9.37673 17.4825 9.30264 17.6037 9.25193C17.7249 9.20122 17.8549 9.17488 17.9863 9.17442C18.1177 9.17395 18.2479 9.19937 18.3695 9.24923C18.4911 9.29908 18.6016 9.37239 18.6949 9.46497C18.7881 9.55755 18.8622 9.66759 18.9129 9.78881C18.9636 9.91003 18.99 10.04 18.9904 10.1714C18.9909 10.3028 18.9655 10.433 18.9156 10.5546C18.8658 10.6762 18.7925 10.7867 18.6999 10.88L11.3099 18.31C10.7852 18.8439 10.1596 19.2683 9.46949 19.5584C8.77938 19.8486 8.03849 19.9986 7.28987 20Z" fill="#444444"/>
</svg>
