<svg width="24" height="24" viewBox="0 0 24 24" fill="none" xmlns="http://www.w3.org/2000/svg">
<path d="M17.5588 21C17.3989 21.0006 17.2411 20.9629 17.0988 20.89L11.9988 18.22L6.89879 20.89C6.73318 20.977 6.54646 21.0159 6.35986 21.0022C6.17326 20.9884 5.99426 20.9226 5.84321 20.8122C5.69217 20.7017 5.57513 20.5511 5.5054 20.3775C5.43567 20.2039 5.41606 20.0142 5.44879 19.83L6.44879 14.2L2.32879 10.2C2.20024 10.0717 2.10906 9.91083 2.06501 9.73465C2.02097 9.55848 2.02573 9.37363 2.07879 9.19996C2.13675 9.02223 2.24336 8.86431 2.38654 8.74412C2.52971 8.62392 2.70371 8.54627 2.88879 8.51996L8.58879 7.68996L11.0988 2.55996C11.1807 2.39089 11.3085 2.2483 11.4677 2.14853C11.6269 2.04876 11.8109 1.99585 11.9988 1.99585C12.1866 1.99585 12.3707 2.04876 12.5299 2.14853C12.689 2.2483 12.8169 2.39089 12.8988 2.55996L15.4388 7.67996L21.1388 8.50996C21.3239 8.53627 21.4979 8.61392 21.641 8.73412C21.7842 8.85431 21.8908 9.01223 21.9488 9.18996C22.0018 9.36363 22.0066 9.54848 21.9626 9.72465C21.9185 9.90083 21.8273 10.0617 21.6988 10.19L17.5788 14.19L18.5788 19.82C18.6145 20.0074 18.5958 20.2012 18.5249 20.3784C18.454 20.5556 18.3339 20.7088 18.1788 20.82C17.9977 20.9469 17.7797 21.0102 17.5588 21ZM11.9988 16.1C12.1591 16.0959 12.3177 16.1338 12.4588 16.21L16.2288 18.21L15.5088 14C15.4809 13.8392 15.4927 13.6741 15.5432 13.5189C15.5938 13.3638 15.6815 13.2234 15.7988 13.11L18.7988 10.18L14.5988 9.55996C14.4448 9.52895 14.3002 9.46209 14.1769 9.3648C14.0535 9.2675 13.9548 9.14251 13.8888 8.99996L11.9988 5.24996L10.1088 8.99996C10.0364 9.14366 9.93048 9.26779 9.79991 9.3618C9.66934 9.45581 9.51802 9.51692 9.35879 9.53996L5.15879 10.16L8.15879 13.09C8.27606 13.2034 8.3638 13.3438 8.41435 13.4989C8.4649 13.6541 8.47672 13.8192 8.44879 13.98L7.72879 18.14L11.4988 16.14C11.6585 16.0806 11.8316 16.0667 11.9988 16.1Z" fill="#444444"/>
</svg>
